<svg width="80" height="80" viewBox="0 0 80 80" fill="none" xmlns="http://www.w3.org/2000/svg">
<g clip-path="url(#clip0_2_72)">
<path d="M60.8924 30.6384H37.1855L39.6078 49.7638L69.0744 34.7948L60.8924 30.6384Z" fill="#009986"/>
<path d="M18.3233 30.6384L10.1414 34.7948L39.6079 49.7638V30.6384H18.3233Z" fill="#00CC76"/>
<path d="M53.6226 18.6324H37.1855L39.6078 41.451L69.0744 26.482L53.6226 18.6324Z" fill="#00CC76"/>
<path d="M25.5932 18.6324L10.1414 26.482L39.6079 41.451V18.6324H25.5932Z" fill="#A5E887"/>
<path d="M50.8013 3.72383C47.7103 1.24128 43.6591 0 39.6078 0L37.1855 12.7139L39.6078 30.694L50.8013 21.7039C56.9833 16.7388 56.9833 8.68883 50.8013 3.72383Z" fill="#FF415B"/>
<path d="M28.4144 3.72383C22.2323 8.68893 22.2323 16.7388 28.4144 21.7039L39.6078 30.694V0C35.5566 0 31.5054 1.24128 28.4144 3.72383Z" fill="#FF7C48"/>
<path d="M39.6078 4.77173L37.1855 12.7138L39.6078 20.656C45.0605 20.656 49.4966 17.0932 49.4966 12.7139C49.4966 8.3346 45.0605 4.77173 39.6078 4.77173Z" fill="#E50058"/>
<path d="M29.7192 12.7139C29.7192 17.0932 34.1554 20.656 39.608 20.656V4.77173C34.1554 4.77173 29.7192 8.3346 29.7192 12.7139Z" fill="#FF415B"/>
<path d="M39.6078 7.6875L37.1855 12.7137L39.6078 17.7401C43.0586 17.7401 45.8661 15.4853 45.8661 12.7138C45.8661 9.94232 43.0586 7.6875 39.6078 7.6875Z" fill="#EBEBF0"/>
<path d="M33.3496 12.7138C33.3496 15.4853 36.1571 17.7401 39.6079 17.7401V7.6875C36.1571 7.6875 33.3496 9.94232 33.3496 12.7138Z" fill="#FFF5F5"/>
</g>
<path d="M0.615 63.7638L2.715 53.2638H6.795C8.065 53.2638 9.045 53.5438 9.735 54.1038C10.435 54.6538 10.785 55.4288 10.785 56.4288C10.785 57.3088 10.58 58.0688 10.17 58.7088C9.77 59.3388 9.195 59.8288 8.445 60.1788C7.695 60.5188 6.805 60.6888 5.775 60.6888H2.355L3.36 59.8038L2.58 63.7638H0.615ZM7.515 63.7638L5.37 59.9538H7.44L9.585 63.7638H7.515ZM3.315 60.0288L2.655 59.0838H5.835C6.785 59.0838 7.52 58.8738 8.04 58.4538C8.56 58.0338 8.82 57.4188 8.82 56.6088C8.82 56.0388 8.625 55.6138 8.235 55.3338C7.855 55.0538 7.305 54.9138 6.585 54.9138H3.525L4.545 53.9388L3.315 60.0288ZM15.3667 63.8688C14.5867 63.8688 13.9017 63.7238 13.3117 63.4338C12.7317 63.1338 12.2817 62.7238 11.9617 62.2038C11.6417 61.6738 11.4817 61.0538 11.4817 60.3438C11.4817 59.4438 11.6867 58.6438 12.0967 57.9438C12.5067 57.2338 13.0667 56.6788 13.7767 56.2788C14.4967 55.8688 15.3167 55.6638 16.2367 55.6638C17.0267 55.6638 17.7117 55.8088 18.2917 56.0988C18.8817 56.3788 19.3367 56.7838 19.6567 57.3138C19.9767 57.8338 20.1367 58.4538 20.1367 59.1738C20.1367 60.0638 19.9317 60.8638 19.5217 61.5738C19.1117 62.2838 18.5467 62.8438 17.8267 63.2538C17.1167 63.6638 16.2967 63.8688 15.3667 63.8688ZM15.4867 62.2638C16.0267 62.2638 16.5017 62.1388 16.9117 61.8888C17.3217 61.6288 17.6467 61.2738 17.8867 60.8238C18.1267 60.3738 18.2467 59.8538 18.2467 59.2638C18.2467 58.6438 18.0617 58.1538 17.6917 57.7938C17.3217 57.4338 16.8017 57.2538 16.1317 57.2538C15.6017 57.2538 15.1267 57.3838 14.7067 57.6438C14.2967 57.8938 13.9717 58.2438 13.7317 58.6938C13.4917 59.1438 13.3717 59.6638 13.3717 60.2538C13.3717 60.8838 13.5567 61.3788 13.9267 61.7388C14.2967 62.0888 14.8167 62.2638 15.4867 62.2638ZM25.9196 63.8688C25.2496 63.8688 24.6696 63.7488 24.1796 63.5088C23.6896 63.2588 23.3196 62.8938 23.0696 62.4138C22.8196 61.9238 22.7046 61.3188 22.7246 60.5988C22.7446 59.5988 22.9246 58.7288 23.2646 57.9888C23.6046 57.2488 24.0796 56.6788 24.6896 56.2788C25.3096 55.8688 26.0446 55.6638 26.8946 55.6638C27.5546 55.6638 28.1496 55.8038 28.6796 56.0838C29.2096 56.3538 29.6296 56.7538 29.9396 57.2838C30.2596 57.8038 30.4196 58.4338 30.4196 59.1738C30.4196 59.8538 30.3046 60.4788 30.0746 61.0488C29.8546 61.6188 29.5396 62.1138 29.1296 62.5338C28.7196 62.9538 28.2396 63.2838 27.6896 63.5238C27.1496 63.7538 26.5596 63.8688 25.9196 63.8688ZM20.4896 66.6738L22.6646 55.7538H24.4496L24.0896 57.5838L23.5946 59.7138L23.3246 61.8588L22.3646 66.6738H20.4896ZM25.7696 62.2638C26.3096 62.2638 26.7846 62.1388 27.1946 61.8888C27.6046 61.6288 27.9296 61.2738 28.1696 60.8238C28.4096 60.3738 28.5296 59.8538 28.5296 59.2638C28.5296 58.6438 28.3446 58.1538 27.9746 57.7938C27.6046 57.4338 27.0846 57.2538 26.4146 57.2538C25.8846 57.2538 25.4096 57.3838 24.9896 57.6438C24.5796 57.8938 24.2546 58.2438 24.0146 58.6938C23.7746 59.1438 23.6546 59.6638 23.6546 60.2538C23.6546 60.8738 23.8396 61.3638 24.2096 61.7238C24.5796 62.0838 25.0996 62.2638 25.7696 62.2638ZM34.9579 63.8688C34.3079 63.8688 33.7129 63.7288 33.1729 63.4488C32.6429 63.1688 32.2179 62.7688 31.8979 62.2488C31.5879 61.7188 31.4329 61.0838 31.4329 60.3438C31.4329 59.6638 31.5429 59.0388 31.7629 58.4688C31.9929 57.8988 32.3129 57.4038 32.7229 56.9838C33.1329 56.5638 33.6079 56.2388 34.1479 56.0088C34.6979 55.7788 35.2979 55.6638 35.9479 55.6638C36.6179 55.6638 37.1929 55.7838 37.6729 56.0238C38.1629 56.2638 38.5329 56.6288 38.7829 57.1188C39.0329 57.5988 39.1479 58.1988 39.1279 58.9188C39.1079 59.9088 38.9279 60.7788 38.5879 61.5288C38.2479 62.2688 37.7729 62.8438 37.1629 63.2538C36.5529 63.6638 35.8179 63.8688 34.9579 63.8688ZM35.4379 62.2638C35.9779 62.2638 36.4529 62.1388 36.8629 61.8888C37.2729 61.6288 37.5979 61.2738 37.8379 60.8238C38.0779 60.3738 38.1979 59.8538 38.1979 59.2638C38.1979 58.6438 38.0129 58.1538 37.6429 57.7938C37.2729 57.4338 36.7529 57.2538 36.0829 57.2538C35.5529 57.2538 35.0779 57.3838 34.6579 57.6438C34.2479 57.8938 33.9229 58.2438 33.6829 58.6938C33.4429 59.1438 33.3229 59.6638 33.3229 60.2538C33.3229 60.8738 33.5079 61.3638 33.8779 61.7238C34.2479 62.0838 34.7679 62.2638 35.4379 62.2638ZM37.4029 63.7638L37.7629 61.9338L38.2729 59.8038L38.5279 57.6588L38.9029 55.7538H40.7779L39.1879 63.7638H37.4029ZM47.5961 55.6638C48.2861 55.6638 48.8711 55.8038 49.3511 56.0838C49.8311 56.3638 50.1661 56.7788 50.3561 57.3288C50.5561 57.8688 50.5761 58.5338 50.4161 59.3238L49.5311 63.7638H47.6561L48.5261 59.3688C48.6561 58.7188 48.5961 58.2138 48.3461 57.8538C48.0961 57.4838 47.6411 57.2988 46.9811 57.2988C46.2911 57.2988 45.7211 57.4888 45.2711 57.8688C44.8211 58.2488 44.5161 58.8288 44.3561 59.6088L43.5161 63.7638H41.6411L43.2311 55.7538H45.0161L44.5661 58.0338L44.2661 57.3138C44.6461 56.7438 45.1211 56.3288 45.6911 56.0688C46.2711 55.7988 46.9061 55.6638 47.5961 55.6638ZM51.9096 63.7638L53.4996 55.7538H55.3746L53.7846 63.7638H51.9096ZM54.8646 54.4338C54.5246 54.4338 54.2496 54.3338 54.0396 54.1338C53.8396 53.9238 53.7396 53.6738 53.7396 53.3838C53.7396 53.0438 53.8546 52.7588 54.0846 52.5288C54.3246 52.2988 54.6346 52.1838 55.0146 52.1838C55.3446 52.1838 55.6146 52.2838 55.8246 52.4838C56.0346 52.6738 56.1396 52.9088 56.1396 53.1888C56.1396 53.5588 56.0246 53.8588 55.7946 54.0888C55.5646 54.3188 55.2546 54.4338 54.8646 54.4338ZM59.0861 63.7638L65.9111 53.2638H67.8461L70.4561 63.7638H68.5211L66.3311 54.2688H67.1111L61.1711 63.7638H59.0861ZM61.7561 61.3338L62.5811 59.8038H68.2361L68.4911 61.3338H61.7561ZM71.8064 63.7638L73.9064 53.2638H75.8564L73.7564 63.7638H71.8064Z" fill="white"/>
<defs>
<clipPath id="clip0_2_72">
<rect width="61.9608" height="49.7638" fill="white" transform="translate(8.62744)"/>
</clipPath>
</defs>
</svg>
