<svg id="svg8" height="293.428mm" viewBox="0 0 370.63492 293.42819" width="370.635mm" xmlns="http://www.w3.org/2000/svg" xmlns:cc="http://creativecommons.org/ns#" xmlns:dc="http://purl.org/dc/elements/1.1/" xmlns:inkscape="http://www.inkscape.org/namespaces/inkscape" xmlns:rdf="http://www.w3.org/1999/02/22-rdf-syntax-ns#" xmlns:sodipodi="http://sodipodi.sourceforge.net/DTD/sodipodi-0.dtd" xmlns:svg="http://www.w3.org/2000/svg"><g id="layer1" transform="translate(326.471 -54.692)"><path id="path21" d="m-29.722616 347.82352c-14.082399-1.35954-27.851792-7.32826-38.584682-16.72555-8.502428-7.44439-15.600338-18.22648-19.278551-29.28507-3.705377-11.14027-4.431704-22.7827-2.156834-34.57223 2.694195-13.96267 10.779206-28.06883 21.435385-37.39896 18.24978-15.97878 43.394038-21.11397 66.2158285-13.52319 11.0585954 3.67821 21.8406845 10.77612 29.2850715 19.27855 15.978788 18.24978 21.113962 43.39404 13.523207 66.21583-3.678237 11.05859-10.776126 21.84068-19.278565 29.28507-14.0892741 12.336-32.906769 18.48785-51.16086 16.72555zm14.754758-41.24812v-17.63889h17.6388886 17.6388894v-8.46667-8.46667h-17.6388894-17.6388886v-17.63889-17.63888h-8.466667-8.466667v17.63888 17.63889h-17.638889-17.638889v8.46667 8.46667h17.638889 17.638889v17.63889 17.63889h8.466667 8.466667zm-311.502782-124.53056v-93.838887h33.86666 33.86667v-16.756944-16.756945h91.01667 91.016669v16.756945 16.756944h34.043057 34.0430556v51.554687 51.5547l-1.8520836-.22336c-12.266521-1.47934-22.13476-1.12067-32.896528 1.19568-4.763188 1.02522-12.902428 3.74217-17.664063 5.89642-18.698331 8.45947-34.284649 23.40248-43.575217 41.77668-4.27445 8.4537-7.6772 19.84807-8.77883 29.39658-.22385 1.94028-.48577 4.20247-.58204 5.02708l-.17503 1.49931h-106.1645-106.16449zm165.73126 50.77962c11.03402-1.20192 21.39983-4.95392 30.58957-11.07217 25.26155-16.81838 36.229359-48.48845 26.79328-77.36691-5.68675-17.40392-18.40544-31.87573-35.08356-39.91942-21.60216-10.418514-46.79362-8.643534-66.85139 4.71032-25.26154 16.81838-36.22935 48.48845-26.79327 77.36691 5.68675 17.40392 18.40543 31.87573 35.08355 39.91942 11.32772 5.46325 24.03873 7.6933 36.26182 6.36185zm-12.59382-17.63515c-11.49466-1.44342-21.6009-6.35793-29.68111-14.4335-7.1976-7.19346-11.57006-15.37056-13.7779-25.76653-1.11908-5.26935-1.11908-13.78064 0-19.05 2.20743-10.39405 6.57855-18.56931 13.7779-25.76866 7.19936-7.19935 15.37461-11.57047 25.76867-13.7779 5.26936-1.11908 13.78064-1.11908 19.05 0 10.39406 2.20743 18.56931 6.57855 25.76867 13.7779 7.19935 7.19935 11.57047 15.37461 13.7779 25.76866.63226 2.97711.78667 4.8467.78667 9.525 0 6.29228-.64383 10.44998-2.45826 15.875-4.90906 14.67775-16.84724 26.61593-31.52498 31.52499-6.31055 2.1106-15.38012 3.09196-21.48756 2.32504z" stroke-width=".353"/></g></svg>